<?xml version="1.0" encoding="utf-8"?>
<!-- Generator: Adobe Illustrator 22.1.0, SVG Export Plug-In . SVG Version: 6.00 Build 0)  -->
<svg version="1.1" id="Vontobel" xmlns="http://www.w3.org/2000/svg" xmlns:xlink="http://www.w3.org/1999/xlink" x="0px" y="0px"
	 viewBox="0 0 159 29" style="enable-background:new 0 0 159 29;" xml:space="preserve">
<style type="text/css">
	.st0{fill:#494948;}
</style>
<title>Vontobel_RGB_graphite_90px</title>
<path class="st0" d="M118.9,23.1c-2.7,0-5-2.3-4.9-5c0-0.1,0-0.2,0-0.3c-0.2-2.7,1.9-5.1,4.7-5.3c0.1,0,0.2,0,0.3,0
	c2.8,0,5.1,2.2,5.1,5c0,0.1,0,0.2,0,0.3c0.1,2.8-2.1,5.1-4.8,5.3C119,23.1,119,23.1,118.9,23.1 M119.8,7.7c-2.2-0.1-4.2,0.9-5.6,2.5
	V1.1h-5.1v26.3h5.1v-2.1c1.4,1.7,3.5,2.7,5.7,2.6c5.3,0,9.3-4.3,9.3-10.1S125.1,7.7,119.8,7.7 M82.3,12.8h-5.8v7
	c0,2.4,1.3,3.3,2.9,3.3c1.3-0.1,2.5-0.5,3.6-1.2l1.9,4c-1.8,1.3-4.1,2-6.4,2c-5.4,0-7.2-3.4-7.2-8.3v-17h5.2v5.7h5.8V12.8z
	 M158.8,27.4h-5.2V1.1h5.2V27.4z M136.7,16h8.5c-0.2-2.3-2.3-4.1-4.6-3.9C138.5,12.3,136.9,14,136.7,16 M150.4,17.8
	c0,0.6,0,1.2-0.1,1.8h-13.6c0.3,2.4,2.5,4.2,4.9,4c1.8,0,3.5-0.6,4.8-1.8l3,3.3c-2.3,2-5.2,3-8.2,2.8c-5.2,0.3-9.7-3.7-10-9
	c0-0.4,0-0.7,0-1.1c0-6,3.9-10.1,9.7-10.1S150.3,11.8,150.4,17.8 M90.7,17.8c-0.2,2.8,2,5.2,4.8,5.4c2.8,0.2,5.2-2,5.4-4.8
	c0-0.2,0-0.4,0-0.6c0.2-2.8-2-5.2-4.8-5.4s-5.2,2-5.4,4.8C90.7,17.4,90.7,17.6,90.7,17.8 M106.2,17.8c0,5.7-4.6,10.4-10.4,10.4
	s-10.4-4.6-10.4-10.4S90.1,7.4,95.8,7.4S106.2,12.1,106.2,17.8 M30.9,17.8c-0.2,2.8,2,5.2,4.8,5.4c2.8,0.2,5.2-2,5.4-4.8
	c0-0.2,0-0.4,0-0.6c0.2-2.8-2-5.2-4.8-5.4s-5.2,2-5.4,4.8C30.9,17.4,30.9,17.6,30.9,17.8 M46.4,17.8c0,5.7-4.6,10.4-10.4,10.4
	s-10.4-4.6-10.4-10.4S30.3,7.4,36,7.4S46.4,12.1,46.4,17.8 M67.2,15.1v12.3H62V16.9c0-2.8-1.4-4.3-3.7-4.3c-2.2-0.1-4,1.6-4.1,3.8
	c0,0.2,0,0.3,0,0.5v10.5H49V8.2h5v2.3c1.3-1.8,3.4-2.9,5.6-2.8c3.9-0.2,7.3,2.9,7.5,6.8C67.2,14.7,67.2,14.9,67.2,15.1 M17.6,27.4
	h-6.9L0.8,1.1h5.9l7.5,20.8l7.5-20.8h5.8L17.6,27.4z"/>
</svg>
